<?xml version="1.0" ?><svg id="Dribbble" style="enable-background:new 0 0 64.017 64.021;" version="1.1" viewBox="0 0 64.017 64.021" xml:space="preserve" xmlns="http://www.w3.org/2000/svg" xmlns:xlink="http://www.w3.org/1999/xlink"><g><g id="XMLID_25_"><g><path d="M60.609,20.051c2.59,6.19,3.02,12.75,1.63,18.83c-6.7-4.15-14.91-5.7-22.91-3.95     c-1.31-3.62-2.81-7-4.39-10.09c6.94-4.47,11.65-11.44,13.41-19.17C53.659,8.941,58.019,13.851,60.609,20.051z" style="fill:#EE326A;"/><path d="M39.329,34.931c8-1.75,16.21-0.2,22.91,3.95c-2.15,9.43-8.66,17.71-18.27,21.73     C43.969,51.181,42.059,42.511,39.329,34.931z" style="fill:#EE326A;"/><path d="M39.329,34.931c2.73,7.58,4.64,16.25,4.64,25.68c-9.6,4.02-20.08,2.84-28.3-2.26     c2.15-9.42,8.67-17.71,18.27-21.73C35.709,35.881,37.509,35.321,39.329,34.931z" style="fill:#EE326A;"/><path d="M34.939,24.841c1.58,3.09,3.08,6.47,4.39,10.09c-1.82,0.39-3.62,0.95-5.39,1.69     c-9.6,4.02-16.12,12.31-18.27,21.73c-5.31-3.27-9.67-8.18-12.26-14.38c-2.57-6.14-3.01-12.63-1.67-18.67l0.39,0.06     c8.17,4.91,18.48,6,27.95,2.04C31.799,26.681,33.419,25.821,34.939,24.841z" style="fill:#EE326A;"/><path d="M48.349,5.671c-1.76,7.73-6.47,14.7-13.41,19.17c-6.77-13.35-14.89-21.43-14.89-21.43     C29.649-0.609,40.129,0.571,48.349,5.671z" style="fill:#EE326A;"/><path d="M20.049,3.411c0,0,8.12,8.08,14.89,21.43c-1.52,0.98-3.14,1.84-4.86,2.56     c-9.47,3.96-19.78,2.87-27.95-2.04l-0.39-0.06C3.849,15.801,10.389,7.451,20.049,3.411z" style="fill:#EE326A;"/></g><g><path d="M48.349,5.671     c5.31,3.27,9.67,8.18,12.26,14.38c2.59,6.19,3.02,12.75,1.63,18.83c-2.15,9.43-8.66,17.71-18.27,21.73     c-9.6,4.02-20.08,2.84-28.3-2.26c-5.31-3.27-9.67-8.18-12.26-14.38c-2.57-6.14-3.01-12.63-1.67-18.67     c2.11-9.5,8.65-17.85,18.31-21.89C29.649-0.609,40.129,0.571,48.349,5.671z" style="fill:none;stroke:#000000;stroke-width:2;stroke-linejoin:round;stroke-miterlimit:10;"/><path d="M15.669,58.351     c2.15-9.42,8.67-17.71,18.27-21.73c1.77-0.74,3.57-1.3,5.39-1.69c8-1.75,16.21-0.2,22.91,3.95" style="fill:none;stroke:#000000;stroke-width:2;stroke-linejoin:round;stroke-miterlimit:10;"/><path d="M48.349,5.671     c-1.76,7.73-6.47,14.7-13.41,19.17c-1.52,0.98-3.14,1.84-4.86,2.56c-9.47,3.96-19.78,2.87-27.95-2.04" style="fill:none;stroke:#000000;stroke-width:2;stroke-linejoin:round;stroke-miterlimit:10;"/><path d="M20.049,3.411     c0,0,8.12,8.08,14.89,21.43c1.58,3.09,3.08,6.47,4.39,10.09c2.73,7.58,4.64,16.25,4.64,25.68" style="fill:none;stroke:#000000;stroke-width:2;stroke-linejoin:round;stroke-miterlimit:10;"/></g></g></g></svg>